<svg xmlns="http://www.w3.org/2000/svg" viewBox="0 0 800 465"><rect width="800" height="465" fill="white"/><g font-family="sans-serif" fill="#172533"><text x="20" y="28" font-size="20">A real fitted-element step survives reduction · NORAD 10573</text><text x="20" y="54" font-size="14">48.8 m adjacent semi-major-axis change; both original samples retained.</text><text x="20" y="76" font-size="13">This is a change in fitted elements, not a confirmed manoeuvre.</text><path d="M60.00,116.71 L86.19,117.72 L150.54,178.22 L176.47,142.12 L234.15,142.12 L260.30,141.78 L318.04,158.16 L344.17,160.17 L392.87,323.29 L434.43,183.90 L492.07,191.25 L518.29,195.60 L582.54,204.29 L625.32,207.97 L645.79,209.64 L709.05,217.66 L750.00,221.67" fill="none" stroke="#999" stroke-width="4"/><path d="M60.00,116.71 L86.19,117.72 L150.54,178.22 L176.47,142.12 L260.30,141.78 L318.04,158.16 L344.17,160.17 L392.87,323.29 L434.43,183.90 L582.54,204.29" fill="none" stroke="#0067a6" stroke-width="1.5"/>
<circle cx="60.00" cy="116.71" r="3" fill="#0067a6"/><circle cx="86.19" cy="117.72" r="3" fill="#0067a6"/><circle cx="150.54" cy="178.22" r="3" fill="#0067a6"/><circle cx="176.47" cy="142.12" r="3" fill="#0067a6"/><circle cx="234.15" cy="142.12" r="2" fill="#999"/><circle cx="260.30" cy="141.78" r="3" fill="#0067a6"/><circle cx="318.04" cy="158.16" r="3" fill="#0067a6"/><circle cx="344.17" cy="160.17" r="3" fill="#0067a6"/><circle cx="392.87" cy="323.29" r="3" fill="#0067a6"/><circle cx="434.43" cy="183.90" r="3" fill="#0067a6"/><circle cx="492.07" cy="191.25" r="2" fill="#999"/><circle cx="518.29" cy="195.60" r="2" fill="#999"/><circle cx="582.54" cy="204.29" r="3" fill="#0067a6"/><circle cx="625.32" cy="207.97" r="2" fill="#999"/><circle cx="645.79" cy="209.64" r="2" fill="#999"/><circle cx="709.05" cy="217.66" r="2" fill="#999"/><circle cx="750.00" cy="221.67" r="2" fill="#999"/><text x="20" y="375" font-size="13">Grey: full source; blue: retained original samples. Local window shown for step inspection.</text><text x="20" y="398" font-size="13">Source endpoints: 2024-10-10T16:25:37.005000+00:00 → 2024-10-11T05:50:04.119000+00:00</text><text x="20" y="420" font-size="13">Whole series: 7,444 of 16,850 points. Full-source fit retained; normal-zoom error ≤ 1 pixel.</text><text x="20" y="443" font-size="13">Vertical: semi-major-axis change from first shown sample (metres). Horizontal: element epoch.</text></g></svg>